<svg xmlns="http://www.w3.org/2000/svg" width="4092" height="4092" viewBox="0 0 4092 4092">
  <defs>
    <style>
      .cls-1 {
        fill: #eba0ac;
        fill-rule: evenodd;
      }
    </style>
  </defs>
  <path id="Color_Fill_1" data-name="Color Fill 1" class="cls-1" d="M370,4c448.322-3.537,818.83,72.8,1156,178,312.79,97.588,589.15,236.143,841,395,626.04,394.88,1115.89,953.74,1422,1668,103,240.34,180.68,497.32,240,785,23.57,114.3,30.35,233.95,47,357q4.5,84.99,9,170c25.08,197.46-24.14,347.61-124,431-185.97,155.3-437.87,123.15-574-55-41.51-54.33-64.62-116.23-76-202q-3.495-117.99-7-236c-17.07-130.1-22.46-254.65-50-372-100.35-427.65-250.34-781.59-467-1090-364.4-518.71-872.83-916.01-1546-1125-129.35-40.158-265.079-67.852-410-94L632,791c-88.01-11.873-183.3,2.6-276-10-91.854-12.484-155.265-41.675-212-88C19.185,591.088-51.463,367.45,58,192,106.175,114.784,180.422,49.349,276,20,304.843,11.143,337.672,13.356,370,4Zm-5,1470c400.171-4.46,762.42,90.54,1016,235,93.42,53.22,185.7,99.09,271,159,350.55,246.23,618.94,568,798,986,55.37,129.26,98.13,270.02,130,424,13.8,66.7,17.99,133.79,28,206,12.72,91.7,22,228.37-1,315a385.343,385.343,0,0,1-131,202c-181.27,145.48-435.46,92.38-558-68-30.6-40.04-54.41-88.3-68-145-12.5-52.16-3.07-118.84-11-179-12.61-95.6-17.35-184.47-41-267-89.29-311.62-244.78-565.35-466-745-174.67-141.85-371.906-252.2-629-313-70.077-16.57-144.445-19.59-223-30-65.2-8.64-134.913,1.44-189-14-103.093-29.44-180.941-93.45-232-175-20.136-32.16-36.009-70.35-46-112-50.894-212.16,82.976-385.93,216-445a429.857,429.857,0,0,1,87-28ZM551,2970c318.7-4.84,514.59,215.15,554,494,12.57,88.97-5.99,183.07-31,247-78.388,200.36-231.816,316.14-479,350-82.22,11.26-164.5-10.38-221-31-161.314-58.87-283.225-184.74-335-353-12.665-41.16-14.387-82.04-21-132-9.789-73.97,7.013-152.99,27-206,61.4-162.86,168.837-276.21,331-338,34.846-13.28,74.033-20.35,115-27Q521,2972.005,551,2970Z"/>
</svg>
